<?xml version="1.0" encoding="utf-8"?>
<!-- Generator: Adobe Illustrator 12.0.0, SVG Export Plug-In . SVG Version: 6.00 Build 51448)  -->
<!DOCTYPE svg PUBLIC "-//W3C//DTD SVG 1.1//EN" "http://www.w3.org/Graphics/SVG/1.1/DTD/svg11.dtd" [
	<!ENTITY ns_svg "http://www.w3.org/2000/svg">
	<!ENTITY ns_xlink "http://www.w3.org/1999/xlink">
]>
<svg  version="1.1" id="Layer_1" xmlns="&ns_svg;" xmlns:xlink="&ns_xlink;" width="599.998" height="146.153"
	 viewBox="0 0 599.998 146.153" overflow="visible" enable-background="new 0 0 599.998 146.153" xml:space="preserve">
<path fill="#D2DAFF" d="M376.197,30.884l11.613-0.1l7.05,7.261l3.324-0.051l13.631,13.703h2.467c0,0,0-0.253,0.604-0.304v-1.057
	l3.377-0.051l0.148,1.31l9.669,0.152l2.12,2.368l3.674,0.053l0.907,0.756c0,0,1.863-0.505,2.315,0.907
	c0.454,1.412-0.504,1.865-1.258,2.118c-0.757,0.251-2.066-0.909-1.662-2.421l-0.656-0.604l-3.624-0.102l-2.22-2.369l-9.314,0.05
	l-0.052,1.461l-3.777,0.051l0.052-1.261c0,0-0.104,0.403-0.554-0.201l-2.521-0.102L397.73,38.648l-3.121-0.049l-7.053-7.059
	l-11.359,0.15V30.884z"/>
<path fill="#D2DAFF" d="M599.974,19.892l-10.024,9.764l0.05,9.62l-2.823,2.77c0,0,0.655,1.359-0.605,2.065
	c-1.26,0.706-2.269-0.555-2.269-0.555s-0.502-1.256,0.908-2.164c0.604-0.655,1.462,0.15,1.462,0.15l2.571-2.72l-0.1-9.518
	l10.831-10.644"/>
<path fill="#D2DAFF" d="M58.198,0.009l5.875,5.942l-0.05,7.311l9.721,9.833c0,0,2.267-0.706,2.367,1.41
	c0.101,2.117-1.964,1.614-2.518,1.462c-0.555-0.15-0.906-1.814-0.656-2.319L62.864,13.362v-7.31l-6.072-6.048"/>
<path fill="#D2DAFF" d="M52.976,0.028l2.083,1.977h3.123l0.05,4.386h-1.361v3.377l12.994,13.26c0,0,2.518-0.655,2.216,1.816
	c-0.302,2.471-3.224,1.563-3.123,0.101c0.101-1.462,0.101-1.311,0.101-1.311L55.512,10.071l-0.05-3.631h-1.36l-0.1-3.831L51.48,0.02
	L52.976,0.028z"/>
<path fill="#D2DAFF" d="M382.487,42.703v-3.734l3.482-0.092l0.042,1.457h0.934c0,0,0.509-1.001,1.53-0.956
	c1.018,0.045,1.399,0.956,1.356,1.641c-0.041,0.684-0.722,1.32-1.612,1.32s-1.146-0.91-1.146-0.91l-1.104-0.046l0.042,1.32H382.487z
	"/>
<path fill="#D2DAFF" d="M0.068,146.153l4.527-4.691l0.115-5.739l13.293-13.63l-0.027-15.196l1.97-1.973v-1.449
	c0,0,1.014-0.665,0.985-1.621c-0.03-0.96-0.695-1.595-1.536-1.595c-0.839,0-1.593,0.666-1.649,1.595
	c-0.06,0.928,0.983,1.563,0.983,1.563h0.117v1.219l-1.912,1.856l0.028,14.992L3.581,135.255l-0.058,5.627l-3.456,3.562V146.153z"/>
<polygon fill="#D2DAFF" points="0.068,142.195 1.931,140.213 1.813,134.617 15.282,120.932 15.397,103.562 17.078,101.879 
	17.106,99.008 16.585,98.459 16.585,96.66 22.233,91.155 101.586,91.094 117.835,74.856 121.165,74.798 139.759,56.067 
	161.192,56.038 184.768,32.292 185.404,32.031 190.763,26.695 386.289,26.609 395.443,35.916 403.581,35.887 412.791,45.137 
	478.694,45.108 480.349,43.658 572.827,43.629 599.998,16.424 599.998,15.232 572.652,42.845 479.912,42.845 478.436,44.267 
	413.052,44.355 403.842,35.075 395.731,35.017 386.58,25.855 190.388,25.796 185.056,31.305 184.419,31.451 160.958,55.255 
	139.527,55.343 120.902,74.102 117.456,74.044 101.238,90.397 21.71,90.372 15.859,96.487 15.802,98.922 16.266,99.215 
	16.179,101.503 14.527,103.272 14.469,120.729 1.029,134.386 1.029,139.981 0.068,141.031 "/>
<polygon fill="#D2DAFF" points="0.068,140.138 0.484,139.768 0.451,133.979 13.832,120.381 13.861,103.537 11.949,101.589 
	11.949,99.216 21.566,89.737 100.92,89.588 117.226,73.35 120.527,73.38 139.267,54.533 160.526,54.591 184.247,30.843 
	184.796,30.553 190.154,25.189 386.81,25.102 396.052,34.264 404.043,34.322 413.571,43.6 478.203,43.66 479.651,42.18 
	572.478,42.18 599.998,14.355 599.998,13.246 572.158,41.396 479.219,41.426 477.855,42.875 413.657,42.992 404.219,33.625 
	396.369,33.625 387.1,24.319 189.777,24.434 184.536,29.884 184.072,29.972 160.265,53.923 138.746,53.981 120.208,72.655 
	116.82,72.684 100.659,88.923 21.188,89.038 11.197,99.042 11.167,101.971 13.108,103.708 13.079,120.295 0.068,133.213 "/>
<polygon fill="#D2DAFF" points="0.068,132.227 12.44,119.774 12.354,104.144 10.559,102.345 10.471,98.723 20.958,88.342 
	100.195,88.228 116.558,71.959 119.976,71.872 138.657,53.217 159.974,53.217 183.636,29.364 184.274,29.162 189.544,23.652 
	387.417,23.683 396.715,32.815 404.766,32.874 413.977,42.124 477.592,42.094 478.953,40.703 571.838,40.673 599.998,12.381 
	599.998,11.164 571.492,40.063 478.782,40.035 477.304,41.456 414.266,41.516 405.001,32.207 396.919,32.121 387.679,22.988 
	189.169,23.015 183.841,28.525 183.376,28.64 159.743,52.475 138.195,52.532 119.745,71.234 116.328,71.322 100.021,87.532 
	20.639,87.704 9.865,98.492 9.865,102.493 11.604,104.377 11.661,119.657 0.068,131.06 "/>
<polygon fill="#D2DAFF" points="0.068,130.167 11.007,119.263 10.913,104.75 8.964,102.798 9.154,98.04 20.275,86.81 99.72,86.763 
	116.022,70.583 119.397,70.392 138.029,51.692 159.511,51.644 182.944,27.806 183.515,27.665 189.074,22.192 387.944,22.097 
	397.261,31.47 405.246,31.518 414.609,40.654 477.027,40.654 478.547,39.322 571.194,39.273 599.979,10.337 599.979,9.319 
	570.861,38.513 478.119,38.655 476.743,39.987 414.799,39.987 405.481,30.708 397.497,30.805 388.085,21.431 188.693,21.526 
	183.371,26.999 182.752,27.141 159.179,50.979 137.694,51.026 119.11,69.726 115.83,69.82 99.434,86.142 20.085,86.284 
	8.393,97.848 8.393,102.987 10.245,105.081 10.198,118.972 0.068,129.08 "/>
<polyline fill="#D2DAFF" points="598.73,0.02 598.712,8.573 572.67,34.828 413.597,34.866 408.245,29.659 397.921,29.584 
	388.604,20.332 187.971,20.445 182.509,25.988 182.061,26.026 158.305,49.811 136.866,49.923 118.345,68.65 114.903,68.764 
	98.666,84.945 19.263,85.093 6.729,97.829 6.654,112.737 3.773,115.734 3.698,123.339 0.068,127.121 0.068,128.207 4.477,123.558 
	4.514,115.845 7.321,112.997 7.283,98.017 19.629,85.654 98.96,85.619 115.235,69.287 118.641,69.175 137.235,50.522 
	158.673,50.372 182.319,26.59 182.804,26.59 188.267,21.008 388.303,20.934 397.843,30.26 408.098,30.185 413.24,35.464 
	573.046,35.428 599.533,8.76 599.514,0.02 "/>
<polyline fill="#D2DAFF" points="597.432,0.02 597.365,7.974 572.071,33.407 414.308,33.407 408.994,28.274 398.48,28.238 
	389.165,19.023 187.297,19.098 182.097,24.416 181.386,24.605 157.705,48.462 136.265,48.462 117.632,67.228 114.377,67.19 
	98.029,83.521 18.661,83.594 5.267,97.23 5.156,112.36 2.313,115.059 2.199,122.924 0.068,124.948 0.068,126.107 3.025,123.109 
	3.025,115.319 5.906,112.474 5.794,97.492 19.113,84.229 98.368,84.229 114.53,67.901 118.235,67.826 136.566,49.137 
	158.117,49.099 181.724,25.315 182.174,25.167 187.598,19.736 388.943,19.622 398.223,28.874 408.626,28.948 414.046,34.118 
	572.335,34.042 598.037,8.085 598.074,0.033 "/>
<polyline fill="#D2DAFF" points="595.986,0.033 596.018,7.263 571.512,32.02 414.647,31.983 409.447,26.814 398.895,26.814 
	389.842,17.526 186.778,17.713 181.427,23.106 180.753,23.217 157.07,47.002 135.559,47.115 117.038,65.767 113.745,65.805 
	97.358,82.209 18.029,82.209 3.738,96.593 3.663,111.651 1.043,114.422 0.894,122.288 0.068,122.953 0.068,123.865 1.526,122.549 
	1.526,114.72 4.446,111.837 4.446,96.893 18.25,82.883 97.767,82.847 114.004,66.554 117.446,66.365 135.893,47.677 157.517,47.677 
	181.088,23.854 181.612,23.629 186.999,18.311 389.467,18.199 398.855,27.487 409.222,27.449 414.496,32.655 571.808,32.655 
	596.69,7.561 596.724,0.04 "/>
<polyline fill="#D2DAFF" points="594.461,0.033 594.427,6.677 570.877,30.568 415.46,30.479 410.245,25.351 399.589,25.35 
	390.559,16.082 186.001,16.126 180.789,21.57 180.159,21.75 156.563,45.687 135.08,45.687 116.518,64.405 113.146,64.361 
	96.743,80.691 17.492,80.827 2.3,96.038 2.344,110.976 0.068,113.075 0.068,121.95 0.502,121.599 0.484,113.651 2.935,111.2 
	3.07,96.307 17.721,81.413 97.195,81.324 113.6,65.035 116.791,64.989 135.262,46.362 156.881,46.272 180.566,22.381 
	181.105,22.245 186.363,16.847 390.153,16.756 399.277,25.935 409.704,26.025 415.233,31.243 571.369,31.154 595.191,6.949 
	595.247,0.02 "/>
<polyline fill="#D2DAFF" points="583.617,0.02 583.547,6.093 566.107,23.73 475.245,23.686 472.132,20.626 401.43,20.671 
	392.309,11.402 184.112,11.672 178.988,17.026 178.269,17.208 154.807,41.054 133.188,41.142 114.67,59.818 28.635,59.907 
	20.815,67.827 20.815,71.156 8.319,83.752 7.285,83.8 5.128,85.96 5.218,88.617 0.903,92.662 0.768,110.344 0.067,111.246 
	0.068,112.324 1.49,110.75 1.446,92.977 5.759,88.885 5.715,86.14 7.512,84.339 8.502,84.339 21.67,71.154 21.581,67.961 
	29.042,60.626 115.033,60.536 133.594,41.728 155.032,41.728 178.538,17.971 179.213,17.792 184.562,12.302 391.948,12.212 
	401.25,21.615 471.95,21.435 474.828,24.36 566.378,24.315 584.399,6.407 584.446,0.02 "/>
<path fill="#D2DAFF" d="M593.646,0.02l-0.035,6.391l-21.571,21.641l-107.461,0.135l-3.775-3.555l-60.857-0.134l-9.078-9.404
	l-205.141,0.224l-5.078,5.31l-0.763,0.09l-23.73,24.071L134.625,44.7l-18.561,18.807l-86.037,0.134l-4.359,4.589
	c0,0,0.359,2.116-1.843,2.162c-1.259,0.043-1.348-1.485-1.348-1.485s-0.135-1.126,0.81-1.53l6.021-5.849l86.082-0.182l18.649-18.625
	l21.396-0.091l23.46-23.891l0.674-0.226l5.26-5.263l206.755-0.135l9.262,9.269l60.945,0.044l3.775,3.601l105.98-0.181l20.135-20.427
	l0.012-5.394"/>
<path fill="#D2DAFF" d="M0.068,79.442"/>
<polyline fill="#D2DAFF" points="565.227,0.02 565.224,0.125 554.789,10.801 546.633,10.801 540.53,16.796 468.063,16.853 
	461.047,9.831 183.398,10.116 181.915,11.372 174.616,11.486 172.278,14.113 162.298,14.113 137.036,39.576 132.189,39.518 
	114.51,57.502 20.227,57.729 9.276,68.86 9.22,70.061 0,79.028 0,79.984 10.023,70.062 10.137,69.034 20.631,58.416 114.8,58.243 
	132.592,40.259 137.326,40.202 162.704,14.855 172.511,14.798 174.907,12.172 182.319,12.114 183.746,10.801 460.823,10.745 
	467.95,17.595 540.932,17.538 547.091,11.373 555.244,11.317 566.022,0.296 566.036,0.014 "/>
<polyline fill="#D2DAFF" points="560.869,0.02 560.831,1.509 553.06,9.425 545.016,9.425 544.339,10.103 483.247,10.036 
	480.811,7.261 399.899,7.396 396.386,3.404 249.021,3.471 244.021,8.682 181.488,8.682 179.931,10.238 173.038,10.17 
	170.469,12.809 160.399,12.876 135.392,38.251 130.457,38.318 114.573,54.49 14.998,54.692 0.089,69.426 0.089,70.542 
	15.403,55.371 114.842,55.168 130.657,38.861 135.591,38.861 160.734,13.623 170.602,13.487 173.441,10.781 180.199,10.849 
	181.822,9.428 244.222,9.358 249.358,4.15 395.979,4.149 399.831,8.141 480.27,8.141 482.839,10.779 544.677,10.779 545.218,10.171 
	553.463,10.171 561.641,1.78 561.658,0.019 "/>
<polyline fill="#D2DAFF" points="554.792,0.02 554.812,1.781 548.73,8.005 544.339,8.005 543.526,8.682 483.785,8.75 480.811,5.772 
	400.51,5.908 396.859,1.915 248.417,2.051 243.482,7.26 180.948,7.396 179.394,8.817 172.635,8.75 169.863,11.456 159.86,11.387 
	134.583,36.897 129.986,36.829 113.967,53.069 14.527,53.339 0.089,67.304 0.089,68.389 14.796,54.017 114.37,53.679 
	130.322,37.575 135.121,37.575 160.263,11.998 170.266,11.998 173.038,9.358 179.931,9.358 181.283,7.938 243.818,7.87 
	248.753,2.796 396.521,2.728 400.102,6.584 480.811,6.584 483.584,9.358 543.799,9.426 544.54,8.682 549.206,8.682 555.557,1.916 
	555.557,0 "/>
<polyline fill="#D2DAFF" points="553.52,0.02 553.531,1.306 548.194,6.719 543.734,6.649 543.126,7.191 484.532,7.191 
	481.829,4.484 401.12,4.62 397.334,0.56 247.877,0.628 242.874,5.838 180.542,6.041 178.784,7.394 172.094,7.327 169.39,10.033 
	159.32,9.966 134.176,35.407 129.446,35.407 113.225,51.715 13.921,51.917 0.089,65.04 0.089,66.153 14.257,52.597 113.63,52.325 
	129.581,36.018 134.447,36.085 159.725,10.645 169.66,10.645 172.364,7.938 179.257,8.005 180.677,6.652 243.144,6.517 
	248.146,1.307 397.196,1.307 400.915,5.164 481.623,5.163 484.325,8.004 543.126,8.004 544.068,7.26 548.597,7.329 554.141,1.441 
	554.141,0.02 "/>
<polyline fill="#D2DAFF" points="166.754,0.042 165.769,1.053 155.702,1.106 135.893,20.939 105.164,20.939 97.068,29.204 
	64.956,29.204 55.796,19.767 0.012,19.873 0.012,18.862 56.063,18.968 65.275,28.245 96.856,28.192 104.951,20.034 135.468,19.928 
	155.544,0.02 165.558,0.02 165.509,0.029 "/>
<polyline fill="#D2DAFF" points="176.478,0.006 176.05,0.359 169.232,0.359 166.623,3.025 156.664,3.186 136.64,23.232 
	106.178,23.126 97.976,31.175 63.945,31.336 54.626,21.953 0.012,22.006 0.012,20.995 55.049,20.939 64.53,30.537 97.548,30.27 
	105.748,22.167 136.371,22.167 156.183,2.067 166.46,2.013 168.376,0.006 "/>
<path fill="#D2DAFF" d="M241.742,0.028l-0.885,0.918l-62.563-0.16l-1.438,1.439l-6.816,0.107l-2.823,2.613l-9.906-0.053
	L137.18,25.15l-29.875-0.159l-9.213,9.17l-17.948-0.16l-0.214,0.266c0,0,0.427,1.654-1.117,2.239
	c-1.012,0.48-1.918-0.905-1.918-0.905s0-0.8,0.16-1.28l-0.425-0.373l-12.676,0.107L53.729,23.818L0.012,24.032v-0.906l54.137-0.108
	l10.118,10.237h13.101l0.426,0.267c0,0,0.904-0.48,1.651,0.106l0.374-0.479l18.16,0.106l9.214-9.063l30.036,0.054l19.865-19.887
	l9.906-0.107l2.663-2.612l7.029-0.054l1.385-1.385l62.511-0.054l0.12-0.135"/>
<path fill="#D2DAFF" d="M0.012,38.84l1.234,0.853l33.006,0.107l1.013-0.587h3.994c0,0,1.544-1.172,2.449,0.374
	c0.906,1.546-0.213,2.185-0.426,2.346c-0.213,0.159-1.545,0.906-2.341-0.108l-3.41-0.212l-0.959,0.692l-34.56,0.053V38.84z"/>
<polyline fill="#D2DAFF" points="243.519,0.023 241.338,2.332 178.721,2.332 177.283,3.718 170.625,3.718 167.591,6.329 
	157.845,6.276 132.654,31.761 127.754,31.761 112.311,47.595 0.012,47.755 0.012,46.958 112.203,46.85 127.752,30.91 
	132.546,30.855 157.631,5.692 167.588,5.585 170.518,2.918 177.121,3.026 178.506,1.745 241.283,1.64 242.835,0.012 "/>
<polyline fill="#D2DAFF" points="245.443,0.023 241.818,3.767 179.416,3.714 178.085,5.207 171.054,5.101 168.392,7.872 
	158.485,7.766 133.243,33.251 128.503,33.251 112.153,49.564 12.913,49.725 0.089,62.682 0.089,61.725 12.804,48.929 
	112.151,48.662 128.446,32.454 133.079,32.507 158.164,7.022 168.229,7.022 170.944,4.464 177.869,4.411 179.252,2.971 
	241.604,3.077 244.634,0.011 "/>
<polyline fill="#D2DAFF" points="552.656,0.031 552.638,0.833 547.685,5.898 543.479,5.898 542.677,6.485 484.758,6.591 
	482.147,3.605 401.308,3.66 397.739,0.062 247.357,0.114 242.406,5.207 180.056,5.207 178.458,6.698 171.641,6.591 168.978,9.311 
	159.18,9.311 133.989,34.688 129.088,34.688 112.899,50.896 13.658,51.163 0.089,64.652 0.089,63.427 13.393,50.418 112.846,50.205 
	128.982,33.997 133.774,33.783 158.805,8.459 168.817,8.459 171.48,6.008 178.404,5.792 179.733,4.567 242.245,4.513 246.774,0.02 
	"/>
<path fill="#D2DAFF" d="M165.849,24.331h-3.736l-0.091-3.481l1.458-0.043v-0.934c0,0-1.003-0.509-0.957-1.528
	c0.045-1.019,0.957-1.401,1.64-1.359c0.683,0.043,1.322,0.721,1.322,1.614c0,0.891-0.912,1.146-0.912,1.146l-0.045,1.104
	l1.321-0.043V24.331z"/>
<path fill="#D2DAFF" d="M384.971,5.443v3.741l-3.476,0.09l-0.041-1.459h-2.162c0,0-0.512,1.004-1.53,0.958
	c-1.017-0.045-1.398-0.958-1.354-1.643c0.041-0.684,0.72-1.322,1.609-1.322c0.891,0,1.145,0.912,1.145,0.912l2.334,0.047
	l-0.041-1.323H384.971z"/>
<path fill="#D2DAFF" d="M258.441,33.032h-66.715l-9.959,10.258l-0.001,5.953l-4.269,4.395v1.739l-2.135,2.199v3.295l-6.047,0.002
	l-0.001-5.954h3.559l1.245-1.281v-1.191l4.445-4.578V42.19l12.674-13.05h67.204c0,0,2.312-1.786,4.093-0.047
	c1.776,1.741,0.353,4.031,0.353,4.031S260.753,35.505,258.441,33.032z"/>
<circle fill="#D2DAFF" cx="376.858" cy="31.665" r="1.639"/>
<circle fill="#D2DAFF" cx="131.996" cy="72.736" r="1.64"/>
<circle fill="#D2DAFF" cx="90.777" cy="79.125" r="0.932"/>
<circle fill="#D2DAFF" cx="90.777" cy="79.126" r="0.435"/>
<path fill="#D2DAFF" d="M79.621,0.02l4.234,4.388l0.202,7.714l6.748,7.261l6.296,0.151l4.08-4.135c0,0-0.353-0.906,0.403-1.915
	c0.756-1.009,2.166-0.404,2.467-0.202c0.302,0.202,0.251,1.513-0.1,2.218c-0.352,0.707-1.864,0.807-2.115,0.556l-4.232,4.133h-7.15
	l-7.252-7.864l-0.05-7.512l-4.735-4.791h-1.108l0.051,1.664l-3.778-0.102l0.09-1.565"/>
<path fill="#D2DAFF" d="M131.102,72.214l6.471-6.491l18.18,0.156l2.117-2.223l20.818,0.05l4.456-4.837l0.756-0.154l12.387-12.978
	l0.05-1.914l3.424-3.723c0,0-0.553-1.656,0.556-2.378c1.108-0.724,1.762-0.053,2.266,0.361s0.352,2.017-0.403,2.535
	c-0.755,0.517-1.762,0-1.762,0l-3.326,3.309l-0.049,2.172L184.3,59.542l-0.706,0.053l-4.605,5.096l-20.97-0.261l-2.166,2.431
	l-18.231-0.258l-5.419,5.612H131.102z"/>
<path fill="#D2DAFF" d="M88.268,0.006l0.064,0.067l1.684,1.793l57.868-0.1c0,0,0.856,1.412,2.115,0.202
	c1.059-1.017,1.774-1.658,1.918-1.895c0.027-0.042,0.041-0.067,0.041-0.067h-3.302h-0.036H91.458L91.277,0.02L88.268,0.006z"/>
<path fill="#D2DAFF" d="M26.619,74.87h-0.756c0,0-0.201-1.058-1.662-1.058c-1.459,0-1.309,1.864-1.309,2.016
	c0,0.151,0.15,1.211,1.762,1.211c1.209-0.203,1.462-1.111,1.462-1.111h0.604l0.051,1.461l3.979-0.099v-3.984l-3.979,0.203
	L26.619,74.87z"/>
<path fill="#D2DAFF" d="M453.957,15.203h-0.755c0,0-0.203-1.058-1.663-1.058c-1.461,0-1.309,1.866-1.309,2.016
	c0,0.152,0.151,1.209,1.762,1.209c1.21-0.201,1.461-1.108,1.461-1.108h0.605l0.05,1.463l3.98-0.103v-3.982l-3.98,0.201
	L453.957,15.203z"/>
<path fill="#D2DAFF" d="M568.497,0.02l0.104,1.966l1.361,0.153v0.756c0,0-1.056,0.201-1.056,1.663c0,1.463,1.862,1.312,2.014,1.312
	c0.15,0,1.207-0.152,1.207-1.765c-0.202-1.209-1.107-1.462-1.107-1.462V2.036l1.461-0.05L572.43,0"/>
<path fill="#D2DAFF" d="M70.476,0.027l7.487,7.628l0.05,11.748c0,0,1.562,0.504,1.109,2.017c-0.454,1.512-2.418,0.907-2.418,0.907
	s-1.913-1.209,0.404-3.025L77.006,8.059l-7.866-8.03"/>
<path fill="#D2DAFF" d="M90.261,79.185l4.562-4.545v-1.911l2.683-0.031v0.833h2.064l8.107-7.947c0,0-0.4-1.54,1.111-1.354
	c1.511,0.184,0.956,1.972,0.062,1.91c-0.895-0.063-0.802-0.063-0.802-0.063l-8.293,8.286l-2.219,0.031v0.832l-2.344,0.062
	l-3.976,3.897H90.261z"/>
<circle fill="#D2DAFF" cx="110.699" cy="33.677" r="3.572"/>
<path fill="#D2DAFF" d="M0.066,3.188l5.775,6.134h3.627l6.296-6.404h5.689c0,0-0.251-0.351,0.504-0.554l0.051-1.058l3.828,0.1
	l0.05,1.462h5.944l9.668,10.185c0,0,1.359-0.354,2.167,0.403c0.805,0.756,0.202,1.865-0.152,2.37
	c-0.352,0.503-1.813,0.403-2.417-0.302c-0.604-0.706-0.2-1.766-0.2-1.766l-9.67-9.931l-5.188,0.1l-0.049,1.815h-4.03l-0.051-1.763
	c0,0-0.25,0.201-0.552-0.303l-5.188,0.1l-6.496,6.353l-4.332-0.101L0.053,4.277"/>
</svg>
