<?xml version="1.0" encoding="utf-8"?>
<!-- Generator: Adobe Illustrator 12.0.0, SVG Export Plug-In . SVG Version: 6.00 Build 51448)  -->
<!DOCTYPE svg PUBLIC "-//W3C//DTD SVG 1.1//EN" "http://www.w3.org/Graphics/SVG/1.1/DTD/svg11.dtd" [
	<!ENTITY ns_svg "http://www.w3.org/2000/svg">
	<!ENTITY ns_xlink "http://www.w3.org/1999/xlink">
]>
<svg  version="1.1" id="Layer_1" xmlns="&ns_svg;" xmlns:xlink="&ns_xlink;" width="100.499" height="100.781"
	 viewBox="0 0 100.499 100.781" overflow="visible" enable-background="new 0 0 100.499 100.781" xml:space="preserve">
<g>
	<g>
		<rect x="0.25" y="50.532" fill="none" stroke="#FFFFFF" stroke-width="0.4986" width="49.719" height="50"/>
		<rect x="0.25" y="75.532" fill="none" stroke="#FFFFFF" stroke-width="0.4986" width="24.86" height="25"/>
		<rect x="0.25" y="50.532" fill="none" stroke="#FFFFFF" stroke-width="0.4986" width="24.86" height="25"/>
		<rect x="25.109" y="75.532" fill="none" stroke="#FFFFFF" stroke-width="0.4986" width="24.859" height="25"/>
		<rect x="25.109" y="50.532" fill="none" stroke="#FFFFFF" stroke-width="0.4986" width="24.859" height="25"/>
		<rect x="25.171" y="75.567" fill="none" stroke="#FFFFFF" stroke-width="0.4986" width="24.771" height="24.911"/>
		<rect x="25.171" y="88.023" fill="none" stroke="#FFFFFF" stroke-width="0.4986" width="12.385" height="12.455"/>
		<rect x="37.556" y="88.023" fill="none" stroke="#FFFFFF" stroke-width="0.4986" width="12.385" height="12.455"/>
		<rect x="37.556" y="75.567" fill="none" stroke="#FFFFFF" stroke-width="0.4986" width="12.385" height="12.456"/>
		<rect x="0.25" y="75.621" fill="none" stroke="#FFFFFF" stroke-width="0.4986" width="24.771" height="24.911"/>
		<rect x="0.25" y="88.077" fill="none" stroke="#FFFFFF" stroke-width="0.4986" width="12.386" height="12.455"/>
		<rect x="12.636" y="88.077" fill="none" stroke="#FFFFFF" stroke-width="0.4986" width="12.385" height="12.455"/>
		<rect x="12.636" y="75.621" fill="none" stroke="#FFFFFF" stroke-width="0.4986" width="12.385" height="12.456"/>
		<rect x="0.25" y="50.532" fill="none" stroke="#FFFFFF" stroke-width="0.4986" width="24.771" height="24.911"/>
		<rect x="0.25" y="62.988" fill="none" stroke="#FFFFFF" stroke-width="0.4986" width="12.386" height="12.455"/>
		<rect x="12.636" y="62.988" fill="none" stroke="#FFFFFF" stroke-width="0.4986" width="12.385" height="12.455"/>
		<rect x="12.636" y="50.532" fill="none" stroke="#FFFFFF" stroke-width="0.4986" width="12.385" height="12.456"/>
		<rect x="25.198" y="50.532" fill="none" stroke="#FFFFFF" stroke-width="0.4986" width="24.771" height="24.911"/>
		<rect x="25.198" y="62.988" fill="none" stroke="#FFFFFF" stroke-width="0.4986" width="12.386" height="12.455"/>
		<rect x="37.583" y="62.988" fill="none" stroke="#FFFFFF" stroke-width="0.4986" width="12.385" height="12.455"/>
		<rect x="37.583" y="50.532" fill="none" stroke="#FFFFFF" stroke-width="0.4986" width="12.385" height="12.456"/>
	</g>
	<g>
		<rect x="50.53" y="50.532" fill="none" stroke="#FFFFFF" stroke-width="0.4986" width="49.719" height="50"/>
		<rect x="50.53" y="75.532" fill="none" stroke="#FFFFFF" stroke-width="0.4986" width="24.86" height="25"/>
		<rect x="50.53" y="50.532" fill="none" stroke="#FFFFFF" stroke-width="0.4986" width="24.86" height="25"/>
		<rect x="75.39" y="75.532" fill="none" stroke="#FFFFFF" stroke-width="0.4986" width="24.859" height="25"/>
		<rect x="75.39" y="50.532" fill="none" stroke="#FFFFFF" stroke-width="0.4986" width="24.859" height="25"/>
		<rect x="75.452" y="75.567" fill="none" stroke="#FFFFFF" stroke-width="0.4986" width="24.771" height="24.911"/>
		<rect x="75.452" y="88.023" fill="none" stroke="#FFFFFF" stroke-width="0.4986" width="12.386" height="12.455"/>
		<rect x="87.837" y="88.023" fill="none" stroke="#FFFFFF" stroke-width="0.4986" width="12.385" height="12.455"/>
		<rect x="87.837" y="75.567" fill="none" stroke="#FFFFFF" stroke-width="0.4986" width="12.385" height="12.456"/>
		<rect x="50.53" y="75.621" fill="none" stroke="#FFFFFF" stroke-width="0.4986" width="24.771" height="24.911"/>
		<rect x="50.53" y="88.077" fill="none" stroke="#FFFFFF" stroke-width="0.4986" width="12.386" height="12.455"/>
		<rect x="62.917" y="88.077" fill="none" stroke="#FFFFFF" stroke-width="0.4986" width="12.385" height="12.455"/>
		<rect x="62.917" y="75.621" fill="none" stroke="#FFFFFF" stroke-width="0.4986" width="12.385" height="12.456"/>
		<rect x="50.53" y="50.532" fill="none" stroke="#FFFFFF" stroke-width="0.4986" width="24.771" height="24.911"/>
		<rect x="50.53" y="62.988" fill="none" stroke="#FFFFFF" stroke-width="0.4986" width="12.386" height="12.455"/>
		<rect x="62.917" y="62.988" fill="none" stroke="#FFFFFF" stroke-width="0.4986" width="12.385" height="12.455"/>
		<rect x="62.917" y="50.532" fill="none" stroke="#FFFFFF" stroke-width="0.4986" width="12.385" height="12.456"/>
		<rect x="75.478" y="50.532" fill="none" stroke="#FFFFFF" stroke-width="0.4986" width="24.771" height="24.911"/>
		<rect x="75.478" y="62.988" fill="none" stroke="#FFFFFF" stroke-width="0.4986" width="12.387" height="12.455"/>
		<rect x="87.865" y="62.988" fill="none" stroke="#FFFFFF" stroke-width="0.4986" width="12.385" height="12.455"/>
		<rect x="87.865" y="50.532" fill="none" stroke="#FFFFFF" stroke-width="0.4986" width="12.385" height="12.456"/>
	</g>
</g>
<g>
	<g>
		<rect x="0.25" y="0.25" fill="none" stroke="#FFFFFF" stroke-width="0.4986" width="49.719" height="50"/>
		<rect x="0.25" y="25.25" fill="none" stroke="#FFFFFF" stroke-width="0.4986" width="24.86" height="25"/>
		<rect x="0.25" y="0.25" fill="none" stroke="#FFFFFF" stroke-width="0.4986" width="24.86" height="25"/>
		<rect x="25.109" y="25.25" fill="none" stroke="#FFFFFF" stroke-width="0.4986" width="24.859" height="25"/>
		<rect x="25.109" y="0.25" fill="none" stroke="#FFFFFF" stroke-width="0.4986" width="24.859" height="25"/>
		<rect x="25.171" y="25.285" fill="none" stroke="#FFFFFF" stroke-width="0.4986" width="24.77" height="24.911"/>
		<rect x="25.171" y="37.741" fill="none" stroke="#FFFFFF" stroke-width="0.4986" width="12.385" height="12.455"/>
		<rect x="37.556" y="37.741" fill="none" stroke="#FFFFFF" stroke-width="0.4986" width="12.385" height="12.455"/>
		<rect x="37.556" y="25.285" fill="none" stroke="#FFFFFF" stroke-width="0.4986" width="12.385" height="12.456"/>
		<rect x="0.25" y="25.338" fill="none" stroke="#FFFFFF" stroke-width="0.4986" width="24.771" height="24.911"/>
		<rect x="0.25" y="37.794" fill="none" stroke="#FFFFFF" stroke-width="0.4986" width="12.386" height="12.455"/>
		<rect x="12.636" y="37.794" fill="none" stroke="#FFFFFF" stroke-width="0.4986" width="12.385" height="12.455"/>
		<rect x="12.636" y="25.338" fill="none" stroke="#FFFFFF" stroke-width="0.4986" width="12.385" height="12.456"/>
		<rect x="0.25" y="0.25" fill="none" stroke="#FFFFFF" stroke-width="0.4986" width="24.771" height="24.911"/>
		<rect x="0.25" y="12.706" fill="none" stroke="#FFFFFF" stroke-width="0.4986" width="12.386" height="12.455"/>
		<rect x="12.636" y="12.706" fill="none" stroke="#FFFFFF" stroke-width="0.4986" width="12.385" height="12.455"/>
		<rect x="12.636" y="0.25" fill="none" stroke="#FFFFFF" stroke-width="0.4986" width="12.385" height="12.456"/>
		<rect x="25.198" y="0.25" fill="none" stroke="#FFFFFF" stroke-width="0.4986" width="24.771" height="24.911"/>
		<rect x="25.198" y="12.706" fill="none" stroke="#FFFFFF" stroke-width="0.4986" width="12.386" height="12.455"/>
		<rect x="37.583" y="12.706" fill="none" stroke="#FFFFFF" stroke-width="0.4986" width="12.385" height="12.455"/>
		<rect x="37.583" y="0.25" fill="none" stroke="#FFFFFF" stroke-width="0.4986" width="12.385" height="12.456"/>
	</g>
	<g>
		<rect x="50.531" y="0.25" fill="none" stroke="#FFFFFF" stroke-width="0.4986" width="49.719" height="50"/>
		<rect x="50.531" y="25.25" fill="none" stroke="#FFFFFF" stroke-width="0.4986" width="24.859" height="25"/>
		<rect x="50.531" y="0.25" fill="none" stroke="#FFFFFF" stroke-width="0.4986" width="24.859" height="25"/>
		<rect x="75.39" y="25.25" fill="none" stroke="#FFFFFF" stroke-width="0.4986" width="24.859" height="25"/>
		<rect x="75.39" y="0.25" fill="none" stroke="#FFFFFF" stroke-width="0.4986" width="24.859" height="25"/>
		<rect x="75.452" y="25.285" fill="none" stroke="#FFFFFF" stroke-width="0.4986" width="24.771" height="24.911"/>
		<rect x="75.452" y="37.741" fill="none" stroke="#FFFFFF" stroke-width="0.4986" width="12.386" height="12.455"/>
		<rect x="87.837" y="37.741" fill="none" stroke="#FFFFFF" stroke-width="0.4986" width="12.385" height="12.455"/>
		<rect x="87.837" y="25.285" fill="none" stroke="#FFFFFF" stroke-width="0.4986" width="12.385" height="12.456"/>
		<rect x="50.531" y="25.338" fill="none" stroke="#FFFFFF" stroke-width="0.4986" width="24.771" height="24.911"/>
		<rect x="50.531" y="37.794" fill="none" stroke="#FFFFFF" stroke-width="0.4986" width="12.386" height="12.455"/>
		<rect x="62.917" y="37.794" fill="none" stroke="#FFFFFF" stroke-width="0.4986" width="12.385" height="12.455"/>
		<rect x="62.917" y="25.338" fill="none" stroke="#FFFFFF" stroke-width="0.4986" width="12.385" height="12.456"/>
		<rect x="50.531" y="0.25" fill="none" stroke="#FFFFFF" stroke-width="0.4986" width="24.771" height="24.911"/>
		<rect x="50.531" y="12.706" fill="none" stroke="#FFFFFF" stroke-width="0.4986" width="12.386" height="12.455"/>
		<rect x="62.917" y="12.706" fill="none" stroke="#FFFFFF" stroke-width="0.4986" width="12.385" height="12.455"/>
		<rect x="62.917" y="0.25" fill="none" stroke="#FFFFFF" stroke-width="0.4986" width="12.385" height="12.456"/>
		<rect x="75.478" y="0.25" fill="none" stroke="#FFFFFF" stroke-width="0.4986" width="24.771" height="24.911"/>
		<rect x="75.478" y="12.706" fill="none" stroke="#FFFFFF" stroke-width="0.4986" width="12.387" height="12.455"/>
		<rect x="87.865" y="12.706" fill="none" stroke="#FFFFFF" stroke-width="0.4986" width="12.385" height="12.455"/>
		<rect x="87.865" y="0.25" fill="none" stroke="#FFFFFF" stroke-width="0.4986" width="12.385" height="12.456"/>
	</g>
</g>
</svg>
