<?xml version="1.0" encoding="utf-8"?>
<!-- Generator: Adobe Illustrator 12.0.0, SVG Export Plug-In . SVG Version: 6.00 Build 51448)  -->
<!DOCTYPE svg PUBLIC "-//W3C//DTD SVG 1.1//EN" "http://www.w3.org/Graphics/SVG/1.1/DTD/svg11.dtd" [
	<!ENTITY ns_svg "http://www.w3.org/2000/svg">
	<!ENTITY ns_xlink "http://www.w3.org/1999/xlink">
]>
<svg  version="1.1" id="Layer_1" xmlns="&ns_svg;" xmlns:xlink="&ns_xlink;" width="383.254" height="383.259"
	 viewBox="0 0 383.254 383.259" overflow="visible" enable-background="new 0 0 383.254 383.259" xml:space="preserve">
<path fill="none" d="M383.254,191.635C383.254,85.803,297.457,0,191.625,0C85.794,0,0,85.803,0,191.635
	c0,105.829,85.794,191.625,191.625,191.625C297.457,383.259,383.254,297.463,383.254,191.635z"/>
<path fill="#FFFFFF" d="M81.299,273.605c0,0,36.389,6.422,72.472-20.181c0,0-27.521,3.362-45.563-33.334
	c0,0,13.761,2.141,21.713-1.528c0,0-36.084-6.725-39.753-49.232c0,0,12.231,6.728,22.017,5.812c0,0-33.331-21.406-14.984-65.135
	c0,0,33.331,44.647,102.136,51.68c0,0-11.011-34.861,27.212-56.877c33.945-13.454,56.572,11.927,56.881,11.62
	c0.305-0.307-0.309,0.307-0.309,0.307s19.573-3.977,31.807-11.927c0,0-3.062,14.677-20.49,25.688c0,0,11.315,0,27.521-6.729
	c0,0-8.258,14.067-24.159,25.076c0,0,7.34,72.778-63.298,123.844C163.865,323.754,81.299,273.605,81.299,273.605z"/>
</svg>
