<?xml version="1.0" encoding="utf-8"?>
<!-- Generator: Adobe Illustrator 12.0.0, SVG Export Plug-In . SVG Version: 6.00 Build 51448)  -->
<!DOCTYPE svg PUBLIC "-//W3C//DTD SVG 1.1//EN" "http://www.w3.org/Graphics/SVG/1.1/DTD/svg11.dtd" [
	<!ENTITY ns_svg "http://www.w3.org/2000/svg">
	<!ENTITY ns_xlink "http://www.w3.org/1999/xlink">
]>
<svg  version="1.1" id="Layer_1" xmlns="&ns_svg;" xmlns:xlink="&ns_xlink;" width="383.254" height="383.259"
	 viewBox="0 0 383.254 383.259" overflow="visible" enable-background="new 0 0 383.254 383.259" xml:space="preserve">
<g>
	<path fill="none" d="M383.254,191.635C383.254,85.803,297.457,0,191.625,0C85.794,0,0,85.803,0,191.635
		c0,105.829,85.794,191.625,191.625,191.625C297.457,383.259,383.254,297.463,383.254,191.635z"/>
</g>
<g>
	<ellipse fill="#041B54" cx="147.743" cy="243.027" rx="18.106" ry="24.039"/>
	<ellipse fill="#041B54" cx="234.89" cy="243.169" rx="18.106" ry="24.037"/>
	<path fill="#041B54" d="M299.773,157.177c-1.91-2.123,2.186-27.471-11.238-63.996c-42.456,10.614-59.313,29.657-63.133,28.879
		c-10.459-2.129-21.724-2.344-33.33-2.344c-12.46,0-23.072,0.509-34.339,2.498c-5.307,0.937-20.604-18.419-63.997-28.721
		c-13.424,33.715-9.438,59.877-11.863,64.309c-12.209,14.58-16.811,30.592-17.482,54.631c-0.763,27.348,9.573,58.492,34.652,75.859
		c23.125,16.016,56.913,19.043,91.156,19.043c43.705,0,71.044-3.605,94.59-21.852c22.037-17.076,31.687-43.572,32.154-68.992
		C317.417,190.794,316.63,175.907,299.773,157.177z M284.476,243.652c-4.682,44.328-41.207,50.572-93.028,50.885
		c-51.822,0.313-92.405-8.115-93.029-51.51c-0.625-43.393,36.837-48.699,46.827-47.451s47.451,2.811,47.451,2.811
		s43.705-1.873,49.013-2.811C247.015,194.64,289.16,199.322,284.476,243.652z"/>
</g>
</svg>
