<?xml version="1.0" encoding="utf-8"?>
<!-- Generator: Adobe Illustrator 12.0.0, SVG Export Plug-In . SVG Version: 6.00 Build 51448)  -->
<!DOCTYPE svg PUBLIC "-//W3C//DTD SVG 1.1//EN" "http://www.w3.org/Graphics/SVG/1.1/DTD/svg11.dtd" [
	<!ENTITY ns_svg "http://www.w3.org/2000/svg">
	<!ENTITY ns_xlink "http://www.w3.org/1999/xlink">
]>
<svg  version="1.1" id="Layer_1" xmlns="&ns_svg;" xmlns:xlink="&ns_xlink;" width="383.254" height="383.259"
	 viewBox="0 0 383.254 383.259" overflow="visible" enable-background="new 0 0 383.254 383.259" xml:space="preserve">
<path fill="none" d="M383.254,191.635C383.254,85.803,297.457,0,191.625,0C85.794,0,0,85.803,0,191.635
	c0,105.829,85.794,191.625,191.625,191.625C297.457,383.259,383.254,297.463,383.254,191.635z"/>
<g>
	<path fill="#FFFFFF" d="M75.611,263.442V139.916c0-5.752,90.453,63.177,90.453,63.177s-71.228,50.635-85.926,68.155
		C77.801,270.971,75.611,269.196,75.611,263.442z"/>
	<path fill="#FFFFFF" d="M191.375,198.181c4.054-0.262,117.18-72.82,117.18-72.82c0-5.855-4.746-10.603-10.604-10.603H86.214
		c-5.856,0-10.603,4.748-10.603,10.603C75.611,125.361,187.321,198.443,191.375,198.181z"/>
	<path fill="#FFFFFF" d="M177.534,210.065c0,0,12.266,9.481,15.211,9.452s14.958-9.702,14.958-9.702s81.5,59.6,70.453,63.879
		H100.913C86.809,273.779,177.534,210.065,177.534,210.065z"/>
</g>
<path fill="#FFFFFF" d="M308.712,262.532V139.007c0-5.752-88.156,63.177-88.156,63.177s69.419,50.635,83.744,68.154
	C306.578,270.061,308.712,268.286,308.712,262.532z"/>
</svg>
