<?xml version="1.0" encoding="utf-8"?>
<!-- Generator: Adobe Illustrator 12.0.0, SVG Export Plug-In . SVG Version: 6.00 Build 51448)  -->
<!DOCTYPE svg PUBLIC "-//W3C//DTD SVG 1.1//EN" "http://www.w3.org/Graphics/SVG/1.1/DTD/svg11.dtd" [
	<!ENTITY ns_svg "http://www.w3.org/2000/svg">
	<!ENTITY ns_xlink "http://www.w3.org/1999/xlink">
]>
<svg  version="1.1" id="Layer_1" xmlns="&ns_svg;" xmlns:xlink="&ns_xlink;" width="393.043" height="393.046"
	 viewBox="0 0 393.043 393.046" overflow="visible" enable-background="new 0 0 393.043 393.046" xml:space="preserve">
<g>
	<path fill="#FFFFFF" d="M240.725,100.844h-89.114c0,0-11.147,0-11.147,11.19h111.41
		C251.874,100.844,240.725,100.844,240.725,100.844z M274.152,134.42c0-11.192-11.13-11.192-11.13-11.192H129.329
		c0,0-11.135,0-11.135,11.192v11.189h155.958V134.42z M296.422,145.609c-6.578-6.624-6.578-6.624-6.578-6.624v17.816H102.503
		v-17.816c0,0,0,0-6.59,6.624c-6.592,6.624-11.314,8.394-8.661,22.379c2.641,13.945,15.435,90.384,17.335,100.724
		c2.081,11.349,13.618,11.185,13.618,11.185H274.17c0,0,11.521,0.164,13.611-11.185c1.899-10.34,14.688-86.778,17.331-100.724
		C307.743,154.002,303.028,152.233,296.422,145.609z M240.934,212.714c0,6.206-5.021,11.23-11.223,11.23h-67.08
		c-6.2,0-11.224-5.024-11.224-11.23v-22.342H162.6v22.383h67.147v-22.383h11.187V212.714z"/>
	<path fill="none" d="M393.043,196.527C393.043,87.994,305.053,0,196.521,0C87.985,0,0,87.994,0,196.527
		s87.985,196.519,196.521,196.519C305.053,393.046,393.043,305.061,393.043,196.527z"/>
</g>
</svg>
