<?xml version="1.0" encoding="utf-8"?>
<!-- Generator: Adobe Illustrator 12.0.0, SVG Export Plug-In . SVG Version: 6.00 Build 51448)  -->
<!DOCTYPE svg PUBLIC "-//W3C//DTD SVG 1.1//EN" "http://www.w3.org/Graphics/SVG/1.1/DTD/svg11.dtd" [
	<!ENTITY ns_svg "http://www.w3.org/2000/svg">
	<!ENTITY ns_xlink "http://www.w3.org/1999/xlink">
]>
<svg  version="1.1" id="Layer_1" xmlns="&ns_svg;" xmlns:xlink="&ns_xlink;" width="383.254" height="383.259"
	 viewBox="0 0 383.254 383.259" overflow="visible" enable-background="new 0 0 383.254 383.259" xml:space="preserve">
<path fill="none" d="M383.254,191.635C383.254,85.803,297.457,0,191.625,0C85.794,0,0,85.803,0,191.635
	c0,105.829,85.794,191.625,191.625,191.625C297.457,383.259,383.254,297.463,383.254,191.635z"/>
<path fill="#FFFFFF" d="M291.514,117.161c0.062-14.845-9.772-22.824-26.04-22.948c-3.443-0.026-141.088-0.244-141.088-0.244
	c-23.399-0.07-30.148,15.621-29.828,27.461l-0.546,143c0.062,16.021,10.144,26.351,25.36,26.227l148.574,0.314
	c17.505,0.186,23.56-19.146,23.381-27.525L291.514,117.161z M152.32,261.752h-29.308v-94.207h29.308V261.752z M137.778,154.876
	c-9.365,0-16.954-7.592-16.954-16.954c0-9.364,7.589-16.953,16.954-16.953c9.359,0,16.952,7.589,16.952,16.953
	C154.73,147.285,147.137,154.876,137.778,154.876z M261.78,261.575c-9.834,0.094-17.782,0.1-29.251,0.178
	c0.071-19.979,0.106-46.422,0.071-51.623c-1.312-20.996-14.97-19.135-15.155-19.135c-15.81,0.137-17.556,14.238-17.582,20.824
	c-0.005,2.013,0,3.307,0,3.307l-0.081,46.43l-29.338,0.204l0.234-94.101l28.072-0.017l0.09,12.89c0,0,5.833-14.296,28.001-15.168
	c18.141,0.107,30.987,7,34.34,31.573C261.917,209.24,261.953,252.667,261.78,261.575z"/>
</svg>
