<?xml version="1.0" encoding="utf-8"?>
<!-- Generator: Adobe Illustrator 12.0.0, SVG Export Plug-In . SVG Version: 6.00 Build 51448)  -->
<!DOCTYPE svg PUBLIC "-//W3C//DTD SVG 1.1//EN" "http://www.w3.org/Graphics/SVG/1.1/DTD/svg11.dtd" [
	<!ENTITY ns_svg "http://www.w3.org/2000/svg">
	<!ENTITY ns_xlink "http://www.w3.org/1999/xlink">
]>
<svg  version="1.1" id="Layer_1" xmlns="&ns_svg;" xmlns:xlink="&ns_xlink;" width="348.128" height="348.126"
	 viewBox="0 0 348.128 348.126" overflow="visible" enable-background="new 0 0 348.128 348.126" xml:space="preserve">
<g>
	<path fill="#FFFFFF" d="M147.733,81.239c-9.947,7.399-12.62,19.12-12.13,25.354c0.628,7.625,2.175,17.553,2.175,17.553
		s-3.068,1.668-3.068,8.364c1.069,16.807,6.692,9.554,7.845,16.929c2.782,17.757,9.135,14.594,9.135,24.286
		c0,16.146-6.659,23.693-27.442,32.644c-20.855,8.984-42.355,20.298-42.355,39.874v9.788h176.23v-9.788
		c0-19.576-21.511-30.89-42.379-39.864c-20.784-8.952-27.421-16.487-27.421-32.646c0-9.691,6.336-6.527,9.126-24.29
		c1.164-7.37,6.771-0.112,7.859-16.923c0-6.697-3.075-8.36-3.075-8.36s1.552-9.932,2.164-17.553
		c0.645-8.004-4.678-20.733-17.617-28.972C183.521,74.308,159.416,72.796,147.733,81.239z"/>
	<circle fill="none" cx="174.064" cy="174.064" r="174.064"/>
</g>
</svg>
